#!OML:ASF X:\für Bonn\!DataBase\2005_08_12_Daniel\c3d\Daniel.ASF
:FULLY-SPECIFIED
:DEGREES
138
root -3.14602 10.8091 -1.23006 3.80846 -88.4304 -22.3594
lowerback 52.4 -3.78803 4.40292
upperback 3.27136 -3.6709 -1.95884
thorax -17.8495 -2.23758 -2.24229
lowerneck 7.49924 2.05303 -2.422
upperneck -6.25889 2.42278 -0.742758
head -3.36637 1.28992 0.0550224
rclavicle 6.95746e-015 -3.97569e-016
rhumerus 70.1328 -11.0142 -142.91
rradius 6.51285
rwrist 110.805
rhand -24.4435 10.0821
rfingers 7.12502
rthumb 2.04907 -19.8878
lclavicle 6.95746e-015 -3.97569e-016
lhumerus 64.0567 1.122 91.4872
lradius 10.5116
lwrist -67.2039
lhand -16.6944 2.77384
lfingers 7.12502
lthumb 9.53025 32.5383
rfemur -51.7723 -43.8295 -3.56147
rtibia 124.954
rfoot 347.28 26.2029
rtoes -14.735
lfemur -597.021 147.591 -180.314
ltibia 122.787
lfoot -16.8979 -31.9497
ltoes 1.08443
139
root -3.14384 10.996 -1.22813 3.13248 -88.3814 -21.2388
lowerback 51.9707 -3.80551 4.42737
upperback 3.21896 -3.67095 -1.9498
thorax -17.8555 -2.23176 -2.25396
lowerneck 7.40055 2.04108 -2.52544
upperneck -6.2023 2.40189 -0.708191
head -3.32964 1.27991 0.0870046
rclavicle -3.97569e-015 -1.11319e-014
rhumerus 70.0108 -10.9584 -142.706
rradius 6.55867
rwrist 110.63
rhand -24.5593 10.1283
rfingers 7.12502
rthumb 1.93721 -19.8427
lclavicle -3.97569e-015 -1.11319e-014
lhumerus 64.0307 0.985658 91.2888
lradius 10.6338
lwrist -66.8294
lhand -16.6352 2.68489
lfingers 7.12502
lthumb 9.58735 32.4467
rfemur -51.8299 -41.5854 -1.90768
rtibia 123.286
rfoot 347.485 24.6287
rtoes -14.7842
lfemur -596.512 149.196 -181.23
ltibia 121.168
lfoot -16.7231 -30.8903
ltoes 1.10485
140
root -3.14365 11.1836 -1.2259 2.54074 -88.3495 -20.2329
lowerback 51.5339 -3.81332 4.46311
upperback 3.18689 -3.65961 -1.95648
thorax -17.8339 -2.22303 -2.2954
lowerneck 7.25885 2.01632 -2.57208
upperneck -6.11881 2.36967 -0.701342
head -3.27383 1.26367 0.101162
rclavicle -1.78906e-015 -2.10712e-014
rhumerus 69.9584 -10.8936 -142.528
rradius 6.5576
rwrist 110.396
rhand -24.6066 10.1365
rfingers 7.12502
rthumb 1.89152 -19.8349
lclavicle -1.78906e-015 -2.10712e-014
lhumerus 64.042 0.88059 91.2458
lradius 10.7092
lwrist -66.722
lhand -16.6247 2.61518
lfingers 7.12502
lthumb 9.59747 32.3766
rfemur -51.6498 -39.5321 -0.547148
rtibia 121.603
rfoot 347.684 23.2326
rtoes -14.8404
lfemur -595.894 150.678 -182.02
ltibia 119.52
lfoot -16.531 -29.9823
ltoes 1.23476
141
root -3.14454 11.3673 -1.22468 1.49761 -88.3179 -18.8128
lowerback 51.1368 -3.81453 4.45468
upperback 3.132 -3.6605 -1.95096
thorax -17.8433 -2.21646 -2.29485
lowerneck 7.14278 2.00855 -2.666
upperneck -6.02352 2.35507 -0.689918
head -3.22005 1.25699 0.123879
rclavicle 3.27995e-015 1.19271e-014
rhumerus 69.8317 -10.8522 -142.335
rradius 6.54354
rwrist 110.137
rhand -24.6261 10.1412
rfingers 7.12502
rthumb 1.87265 -19.8303
lclavicle 3.27995e-015 1.19271e-014
lhumerus 64.0159 0.848969 91.2331
lradius 10.7802
lwrist -66.6912
lhand -16.5886 2.49767
lfingers 7.12502
lthumb 9.63232 32.2575
rfemur -51.3017 -37.677 0.570973
rtibia 119.926
rfoot 347.901 22.0152
rtoes -14.6744
lfemur -595.179 152.033 -182.721
ltibia 117.851
lfoot -16.3595 -29.1582
ltoes 1.32048
142
root -3.14657 11.5497 -1.22257 0.249869 -88.2694 -17.2031
lowerback 50.689 -3.81569 4.46657
upperback 3.11862 -3.6578 -1.95671
thorax -17.7925 -2.21048 -2.32045
lowerneck 6.94303 1.97815 -2.67549
upperneck -5.89945 2.32007 -0.707878
head -3.13835 1.23883 0.124299
rclavicle -2.127e-014 -2.38542e-015
rhumerus 69.7383 -10.831 -142.141
rradius 6.57546
rwrist 109.874
rhand -24.6011 10.2313
rfingers 7.12502
rthumb 1.89686 -19.74
lclavicle -2.127e-014 -2.38542e-015
lhumerus 64.0507 0.752202 91.1807
lradius 10.7873
lwrist -66.6466
lhand -16.5641 2.39788
lfingers 7.12502
lthumb 9.65593 32.1566
rfemur -50.8233 -36.0504 1.48849
rtibia 118.255
rfoot 348.011 20.9304
rtoes -14.6518
lfemur -594.43 153.322 -183.368
ltibia 116.175
lfoot -16.1815 -28.4341
ltoes 1.42704
143
root -3.15056 11.7275 -1.22056 -0.164313 -88.2294 -16.455
lowerback 50.2435 -3.81806 4.47231
upperback 3.10131 -3.65737 -1.94777
thorax -17.7432 -2.20508 -2.32523
lowerneck 6.73025 1.97142 -2.75235
upperneck -5.74819 2.31396 -0.686605
head -3.04714 1.23473 0.147957
rclavicle 2.01766e-014 6.36111e-015
rhumerus 69.5976 -10.7848 -141.948
rradius 6.58905
rwrist 109.516
rhand -24.5327 10.2884
rfingers 7.12502
rthumb 1.96291 -19.6824
lclavicle 2.01766e-014 6.36111e-015
lhumerus 64.0307 0.740791 91.2118
lradius 10.8302
lwrist -66.7322
lhand -16.5072 2.2866
lfingers 7.12502
lthumb 9.7108 32.0427
rfemur -50.2395 -34.5837 2.28342
rtibia 116.592
rfoot 348.164 19.9918
rtoes -14.5099
lfemur -593.617 154.449 -183.893
ltibia 114.504
lfoot -16 -27.8275
ltoes 1.6441
